# AST/ASF file generated using VICON BodyLanguage
# -----------------------------------------------
:version 1.10
:name VICON
:units
  mass 1.0
  length 0.45
  angle deg
:documentation
   .ast/.asf automatically generated from VICON data using
   VICON BodyBuilder and BodyLanguage model FoxedUp or BRILLIANT.MOD
:root
   order TX TY TZ RX RY RZ
   axis XYZ
   position 0 0 0  
   orientation 0 0 0 
:bonedata
  begin
     id 1 
     name lhipjoint
     direction 0.822369 -0.411937 0.392449 
     length 3.8167 
     axis 0 0 0  XYZ
  end
  begin
     id 2 
     name lfemur
     direction 0.34202 -0.939693 0  
     length 6.16791  
     axis 0 0 20  XYZ
    dof rx ry rz
    limits (-160.0 20.0)
           (-70.0 70.0)
           (-60.0 70.0)
  end
  begin
     id 3 
     name ltibia
     direction 0.34202 -0.939693 0   
     length 7.07101   
     axis 0 0 20   XYZ
    dof rx
    limits (-10.0 170.0)
  end
  begin
     id 4 
     name lfoot
     direction 0.028254 -0.0776273 0.996582   
     length 1.66799   
     axis -90 7.62852e-016 20   XYZ
    dof rx rz
    limits (-45.0 90.0)
           (-70.0 20.0)
  end
  begin
     id 5 
     name ltoes
     direction 1.53483e-011 -4.21688e-011 1   
     length 0.851674   
     axis -90 7.62852e-016 20   XYZ
    dof rx
    limits (-90.0 20.0)
  end
  begin
     id 6 
     name rhipjoint
     direction -0.822466 -0.411836 0.392353   
     length 3.81764  
     axis 0 0 0  XYZ 
  end
  begin
     id 7 
     name rfemur
     direction -0.34202 -0.939693 0   
     length 6.28636   
     axis 0 0 -20   XYZ
    dof rx ry rz
    limits (-160.0 20.0)
           (-70.0 70.0)
           (-70.0 60.0)
  end
  begin
     id 8 
     name rtibia
     direction -0.34202 -0.939693 0   
     length 6.85621   
     axis 0 0 -20   XYZ
    dof rx
    limits (-10.0 170.0)
 end
 begin
     id 9 
     name rfoot
     direction -0.0553036 -0.151945 0.98684   
     length 1.57293  
     axis -90 -7.62852e-016 -20   XYZ
    dof rx rz
    limits (-45.0 90.0)
           (-20.0 70.0)
  end
  begin
     id 10 
     name rtoes
     direction -1.53592e-011 -4.21964e-011 1   
     length 0.802812   
     axis -90 -7.62852e-016 -20   XYZ
    dof rx
    limits (-90.0 20.0)
  end
  begin
     id 11 
     name lowerback
     direction 0.00654913 0.996475 -0.0836396   
     length 1.97212   
     axis 0 0 0   XYZ
    dof rx ry rz
    limits (-20.0 45.0)
           (-30.0 30.0)
           (-30.0 30.0)
  end
  begin
     id 12 
     name upperback
     direction 0.0111875 0.994527 0.103877   
     length 1.89704   
     axis 0 0 0   XYZ
    dof rx ry rz
    limits (-20.0 45.0)
           (-30.0 30.0)
           (-30.0 30.0)
  end
  begin
     id 13 
     name thorax
     direction 0.00473652 0.989004 0.147814   
     length 1.94516   
     axis 0 0 0   XYZ
    dof rx ry rz
    limits (-20.0 45.0)
           (-30.0 30.0)
           (-30.0 30.0)
  end
  begin
     id 14 
     name lowerneck
     direction -0.00925808 0.999011 0.0434791   
     length 1.81771   
     axis 0 0 0   XYZ
    dof rx ry rz
    limits (-20.0 45.0)
           (-30.0 30.0)
           (-30.0 30.0)
  end
  begin
     id 15 
     name upperneck
     direction 0.00451595 0.964412 -0.264365   
     length 1.80434   
     axis 0 0 0   XYZ
    dof rx ry rz
    limits (-20.0 45.0)
           (-30.0 30.0)
           (-30.0 30.0)
  end
  begin
     id 16
     name head
     direction -0.00110849 0.995756 -0.0920241  
     length 1.84006  
     axis 0 0 0   XYZ
    dof rx ry rz
    limits (-20.0 45.0)
           (-30.0 30.0)
           (-30.0 30.0)
  end
  begin
     id 17 
     name lclavicle
     direction 0.921253 0.385213 0.0538957  
     length 3.67415  
     axis 0 0 0   XYZ
    dof ry rz
    limits (-20.0 10.0)
           (0.0 20.0)
  end
  begin
     id 18 
     name lhumerus
     direction 1 -4.48961e-011 6.73441e-028   
     length 4.32712   
     axis 180 -30 -90   XYZ
    dof rx ry rz
    limits (-60.0 90.0)
           (-90.0 90.0)
           (-90.0 90.0)
  end
  begin
     id 19
     name lradius
     direction 1 -4.48985e-011 -9.53507e-028   
     length 3.28587   
     axis 180 -30 -90   XYZ
    dof rx
    limits (-10.0 170.0)
  end
  begin
     id 20
     name lwrist
     direction 1 -4.48951e-011 -4.67472e-027   
     length 1.64293   
     axis 1.65735e-015 90 90   XYZ
    dof ry
    limits (-180.0 0.0)
 end
  begin
     id 21 
     name lhand
     direction 1 -4.48946e-011 -9.34945e-027   
     length 0.433158   
     axis 5.96574e-015 90 90   XYZ
    dof rx rz
    limits (-90.0 90.0)
           (-45.0 45.0)
  end
  begin
     id 22 
     name lfingers
     direction 1 -4.48882e-011 -1.86989e-026   
     length 0.349224   
     axis 1.19315e-014 90 90   XYZ
    dof rx
    limits (0.0 90.0)
  end
  begin
     id 23
     name lthumb
     direction 0.707107 -6.3493e-011 0.707107   
     length 0.501417   
     axis -90 45 2.85299e-015   XYZ
    dof rx rz
    limits (-45.0 45.0)
           (-45.0 45.0)
  end
  begin
     id 24 
     name rclavicle
     direction -0.884378 0.46502 -0.0403866   
     length 3.50218  
     axis 0 0 0   XYZ 
    dof ry rz
    limits (-10.0 20.0)
           (-20.0 0.0)
  end
  begin
     id 25 
     name rhumerus
     direction -1 -4.48964e-011 1.58188e-027  
     length 4.29104   
     axis 180 30 90   XYZ
    dof rx ry rz
    limits (-90.0 60.0)
           (-90.0 90.0)
           (-90.0 90.0)
  end
  begin
     id 26 
     name rradius
     direction -1 -4.48978e-011 -1.9722e-027   
     length 3.2272   
     axis 180 30 90   XYZ
    dof rx
    limits (-10.0 170.0)
  end
  begin
     id 27 
     name rwrist
     direction -1 -4.48969e-011 -4.67472e-027   
     length 1.6136   
     axis 1.65735e-015 -90 -90   XYZ
    dof ry
    limits (-180.0 0.0)
  end
  begin
     id 28
     name rhand
     direction -1 -4.48846e-011 -9.34945e-027   
     length 0.543623   
     axis 5.96574e-015 -90 -90   XYZ
    dof rx rz
    limits (-90.0 90.0)
           (-45.0 45.0)
  end
  begin
     id 29
     name rfingers
     direction -1 -4.49074e-011 -1.86989e-026   
     length 0.438283   
     axis 1.19315e-014 -90 -90   XYZ
    dof rx
    limits (0.0 90.0)
  end
  begin
     id 30
     name rthumb
     direction -0.707107 -6.34834e-011 0.707107   
     length 0.629289   
     axis -90 -45 -2.85299e-015   XYZ
    dof rx rz
    limits (-45.0 45.0)
           (-45.0 45.0)
  end
:hierarchy
  begin
    root lhipjoint rhipjoint lowerback
    lhipjoint lfemur
    lfemur ltibia
    ltibia lfoot
    lfoot ltoes
    rhipjoint rfemur
    rfemur rtibia
    rtibia rfoot
    rfoot rtoes
    lowerback upperback
    upperback thorax
    thorax lowerneck lclavicle rclavicle
    lowerneck upperneck
    upperneck head
    lclavicle lhumerus
    lhumerus lradius
    lradius lwrist
    lwrist lhand lthumb
    lhand lfingers
    rclavicle rhumerus
    rhumerus rradius
    rradius rwrist
    rwrist rhand rthumb
    rhand rfingers
  end

#!OML:ASF H:\GeneralSubjects\Female5\Project 1\Capture day 1\Session 1\Female5.ASF
:FULLY-SPECIFIED
:DEGREES
110
root -25.3737 16.0787 -13.4285 -243.039 87.7203 -249.808
lowerback 19.7521 3.48925 6.35021
upperback -13.4557 6.11051 -7.08442
thorax -26.4804 0.228543 -15.275
lowerneck -6.89807 -10.7832 0.289303
upperneck 47.6778 -15.5858 4.36683
head 20.5465 -4.14675 -0.108912
rclavicle -2.10712e-014 1.59028e-014
rhumerus -67.9824 -5.17679 -80.6399
rradius 35.4385
rwrist -5.41794
rhand -21.9712 -17.8363
rfingers 7.12502
rthumb 4.43655 -47.7699
lclavicle -2.10712e-014 1.59028e-014
lhumerus -51.2388 -25.175 74.8116
lradius 38.5351
lwrist -2.59547
lhand -28.4689 27.7803
lfingers 7.12502
lthumb -1.83873 57.7521
rfemur -30.1646 -1.32372 25.9974
rtibia 46.7185
rfoot -13.3545 -17.0064
rtoes -21.2623
lfemur -4.29736 -19.5059 -35.2349
ltibia 6.61977
lfoot -27.5772 3.37505
ltoes -33.2447
111
root -25.1626 16.0735 -13.4347 -240.522 87.3522 -247.276
lowerback 19.7851 3.38792 6.12571
upperback -13.3928 5.87058 -7.16867
thorax -26.5061 0.162347 -15.1565
lowerneck -6.79455 -10.8551 0.194358
upperneck 47.5977 -15.7272 4.48897
head 20.5011 -4.21606 -0.0547328
rclavicle 2.66371e-014 -1.11319e-014
rhumerus -68.1329 -5.23921 -80.6344
rradius 35.3309
rwrist -4.96368
rhand -21.9737 -17.4854
rfingers 7.12502
rthumb 4.43417 -47.419
lclavicle 2.66371e-014 -1.11319e-014
lhumerus -50.9998 -25.5795 75.1752
lradius 39.0707
lwrist -3.45991
lhand -25.4473 29.504
lfingers 7.12502
lthumb 1.07961 59.481
rfemur -31.2158 -0.359558 25.6059
rtibia 42.2602
rfoot -13.1354 -18.4314
rtoes -25.0745
lfemur -2.92635 -20.0305 -36.0393
ltibia 5.99274
lfoot -27.8147 2.50874
ltoes -33.5359
112
root -24.9459 16.0652 -13.4424 -237.323 86.9777 -244.165
lowerback 19.6908 3.28405 6.01388
upperback -13.3704 5.65962 -7.29664
thorax -26.4782 0.087431 -15.1642
lowerneck -6.74161 -10.9738 0.24554
upperneck 47.623 -15.9063 4.42964
head 20.4959 -4.28592 -0.122194
rclavicle -5.1684e-015 2.54444e-014
rhumerus -68.3433 -5.39041 -80.6223
rradius 35.1481
rwrist -4.51034
rhand -22.3388 -17.0934
rfingers 7.12502
rthumb 4.08161 -47.034
lclavicle -5.1684e-015 2.54444e-014
lhumerus -50.742 -26.1561 75.6941
lradius 39.4128
lwrist -3.6508
lhand -24.2592 30.0335
lfingers 7.12502
lthumb 2.22699 60.0016
rfemur -31.7829 0.816161 25.0839
rtibia 36.9285
rfoot -13.5015 -20.1625
rtoes -27.3012
lfemur -1.77611 -20.426 -36.8101
ltibia 5.56786
lfoot -28.048 1.97091
ltoes -33.8942
113
root -24.726 16.0545 -13.4479 -233.388 86.6403 -240.331
lowerback 19.56 3.18443 5.98428
upperback -13.3559 5.48691 -7.39904
thorax -26.4169 0.0204093 -15.1976
lowerneck -6.74262 -11.1236 0.34425
upperneck 47.726 -16.0926 4.2293
head 20.529 -4.3598 -0.270938
rclavicle 4.53229e-014 5.40694e-014
rhumerus -68.6849 -5.49288 -80.6544
rradius 34.9825
rwrist -4.47646
rhand -22.6653 -17.1851
rfingers 7.12502
rthumb 3.76628 -47.1316
lclavicle 4.53229e-014 5.40694e-014
lhumerus -50.7337 -26.9697 76.4436
lradius 39.9192
lwrist -3.25956
lhand -24.0147 35.9421
lfingers 7.12502
lthumb 2.46319 65.9077
rfemur -31.7884 2.37351 24.4221
rtibia 30.8595
rfoot -15.121 -21.5656
rtoes -26.4667
lfemur -0.734359 -20.5332 -37.4648
ltibia 5.23846
lfoot -28.1207 1.58255
ltoes -34.1147
114
root -24.5002 16.0414 -13.4466 -229.17 86.2904 -236.215
lowerback 19.3994 3.10409 5.85028
upperback -13.3585 5.32277 -7.41725
thorax -26.3694 -0.0102048 -15.0571
lowerneck -6.70359 -11.2722 0.317336
upperneck 47.8169 -16.2656 4.09246
head 20.5702 -4.44213 -0.362673
rclavicle -6.95746e-014 3.49861e-014
rhumerus -69.1454 -5.55027 -80.5151
rradius 34.8309
rwrist -4.36973
rhand -22.2993 -17.7505
rfingers 7.12502
rthumb 4.11976 -47.6904
lclavicle -6.95746e-014 3.49861e-014
lhumerus -50.8151 -27.6744 77.2753
lradius 40.5126
lwrist -3.13338
lhand -24.576 33.7395
lfingers 7.12502
lthumb 1.92108 63.7106
rfemur -31.2207 4.63371 23.394
rtibia 23.9636
rfoot -17.4335 -22.8127
rtoes -23.101
lfemur 0.365209 -20.811 -37.9949
ltibia 4.86169
lfoot -28.3423 1.37431
ltoes -33.8193
115
root -24.2657 16.0235 -13.441 -226.021 85.8898 -233.226
lowerback 19.1611 3.05313 5.58408
upperback -13.4148 5.16509 -7.42628
thorax -26.3555 -0.0141275 -14.8283
lowerneck -6.56279 -11.4246 0.195309
upperneck 47.8168 -16.4733 4.10583
head 20.5593 -4.54465 -0.364398
rclavicle -6.75868e-015 2.22639e-014
rhumerus -69.6908 -5.63938 -80.2617
rradius 34.6121
rwrist -4.24286
rhand -22.0893 -17.7005
rfingers 7.12502
rthumb 4.32256 -47.6364
lclavicle -6.75868e-015 2.22639e-014
lhumerus -50.8864 -28.2405 78.1106
lradius 40.8789
lwrist -3.08871
lhand -24.9393 32.2973
lfingers 7.12502
lthumb 1.57019 62.2713
rfemur -30.2479 8.23048 21.6121
rtibia 16.3098
rfoot -21.5134 -24.06
rtoes -14.4161
lfemur 1.38949 -20.8263 -38.491
ltibia 4.48225
lfoot -28.3054 1.09604
ltoes -33.4127
